<?xml version="1.0" encoding="utf-8"?>
<svg xmlns="http://www.w3.org/2000/svg" xmlns:xlink="http://www.w3.org/1999/xlink">
<defs>
<symbol viewBox="0 0 24 24" id="Alarm">
<path d="M3 5.5L5 3.5M21 5.5L19 3.5M12 8.5V13.5M12 16.5H12.01M20 12.5C20 16.9183 16.4183 20.5 12 20.5C7.58172 20.5 4 16.9183 4 12.5C4 8.08172 7.58172 4.5 12 4.5C16.4183 4.5 20 8.08172 20 12.5Z" stroke="currentcolor" stroke-width="2" stroke-linecap="round" stroke-linejoin="round"></path>
</symbol>
<symbol viewBox="0 0 24 24" id="Clock">
<path d="M12 7V12L10.5 14.5M21 12C21 16.9706 16.9706 21 12 21C7.02944 21 3 16.9706 3 12C3 7.02944 7.02944 3 12 3C16.9706 3 21 7.02944 21 12Z" stroke="currentcolor" stroke-width="2" stroke-linecap="round" stroke-linejoin="round"></path>
</symbol>
<symbol viewBox="0 0 24 24" id="Eye">
<path fill-rule="evenodd" clip-rule="evenodd" d="M11.9944 15.5C13.9274 15.5 15.4944 13.933 15.4944 12C15.4944 10.067 13.9274 8.5 11.9944 8.5C10.0614 8.5 8.49439 10.067 8.49439 12C8.49439 13.933 10.0614 15.5 11.9944 15.5ZM11.9944 13.4944C11.1691 13.4944 10.5 12.8253 10.5 12C10.5 11.1747 11.1691 10.5056 11.9944 10.5056C12.8197 10.5056 13.4888 11.1747 13.4888 12C13.4888 12.8253 12.8197 13.4944 11.9944 13.4944Z" fill="currentcolor"></path>
<path fill-rule="evenodd" clip-rule="evenodd" d="M12 5C7.18879 5 3.9167 7.60905 2.1893 9.47978C0.857392 10.9222 0.857393 13.0778 2.1893 14.5202C3.9167 16.391 7.18879 19 12 19C16.8112 19 20.0833 16.391 21.8107 14.5202C23.1426 13.0778 23.1426 10.9222 21.8107 9.47978C20.0833 7.60905 16.8112 5 12 5ZM3.65868 10.8366C5.18832 9.18002 7.9669 7 12 7C16.0331 7 18.8117 9.18002 20.3413 10.8366C20.9657 11.5128 20.9657 12.4872 20.3413 13.1634C18.8117 14.82 16.0331 17 12 17C7.9669 17 5.18832 14.82 3.65868 13.1634C3.03426 12.4872 3.03426 11.5128 3.65868 10.8366Z" fill="currentcolor"></path>
</symbol>
<symbol viewBox="0 0 24 24" id="EyeOff">
<path d="M4.4955 7.44088C3.54724 8.11787 2.77843 8.84176 2.1893 9.47978C0.857392 10.9222 0.857393 13.0778 2.1893 14.5202C3.9167 16.391 7.18879 19 12 19C13.2958 19 14.4799 18.8108 15.5523 18.4977L13.8895 16.8349C13.2936 16.9409 12.6638 17 12 17C7.9669 17 5.18832 14.82 3.65868 13.1634C3.03426 12.4872 3.03426 11.5128 3.65868 10.8366C4.23754 10.2097 4.99526 9.50784 5.93214 8.87753L4.4955 7.44088Z" fill="currentcolor"></path>
<path d="M8.53299 11.4784C8.50756 11.6486 8.49439 11.8227 8.49439 12C8.49439 13.933 10.0614 15.5 11.9944 15.5C12.1716 15.5 12.3458 15.4868 12.516 15.4614L8.53299 11.4784Z" fill="currentcolor"></path>
<path d="M15.4661 12.4471L11.5473 8.52829C11.6937 8.50962 11.8429 8.5 11.9944 8.5C13.9274 8.5 15.4944 10.067 15.4944 12C15.4944 12.1515 15.4848 12.3007 15.4661 12.4471Z" fill="currentcolor"></path>
<path d="M18.1118 15.0928C19.0284 14.4702 19.7715 13.7805 20.3413 13.1634C20.9657 12.4872 20.9657 11.5128 20.3413 10.8366C18.8117 9.18002 16.0331 7 12 7C11.3594 7 10.7505 7.05499 10.1732 7.15415L8.50483 5.48582C9.5621 5.1826 10.7272 5 12 5C16.8112 5 20.0833 7.60905 21.8107 9.47978C23.1426 10.9222 23.1426 13.0778 21.8107 14.5202C21.2305 15.1486 20.476 15.8603 19.5474 16.5284L18.1118 15.0928Z" fill="currentcolor"></path>
<path d="M2.00789 3.42207C1.61736 3.03155 1.61736 2.39838 2.00789 2.00786C2.39841 1.61733 3.03158 1.61733 3.4221 2.00786L22.0004 20.5862C22.391 20.9767 22.391 21.6099 22.0004 22.0004C21.6099 22.3909 20.9767 22.3909 20.5862 22.0004L2.00789 3.42207Z" fill="currentcolor"></path>
</symbol>
<symbol viewBox="0 0 24 24" id="Search">
<g id="SVGRepo_bgCarrier" stroke-width="0"></g><g id="SVGRepo_tracerCarrier" stroke-linecap="round" stroke-linejoin="round"></g><g id="SVGRepo_iconCarrier"> <path d="M15.7955 15.8111L21 21M18 10.5C18 14.6421 14.6421 18 10.5 18C6.35786 18 3 14.6421 3 10.5C3 6.35786 6.35786 3 10.5 3C14.6421 3 18 6.35786 18 10.5Z" stroke="currentcolor" stroke-width="2" stroke-linecap="round" stroke-linejoin="round">
</path> </g></symbol>
</defs>
</svg>